<?xml version="1.0" encoding="UTF-8" standalone="no"?>
<!DOCTYPE svg PUBLIC "-//W3C//DTD SVG 1.1//EN"
 "http://www.w3.org/Graphics/SVG/1.1/DTD/svg11.dtd">
<!-- Generated by graphviz version 6.0.1 (20220911.1526)
 -->
<!-- Pages: 1 -->
<svg width="1797pt" height="620pt"
 viewBox="0.00 0.00 1796.70 620.00" xmlns="http://www.w3.org/2000/svg" xmlns:xlink="http://www.w3.org/1999/xlink">
<g id="graph0" class="graph" transform="scale(1 1) rotate(0) translate(4 616)">
<polygon fill="white" stroke="none" points="-4,4 -4,-616 1792.7,-616 1792.7,4 -4,4"/>
<!-- [root] azurerm_network_interface.vm (expand) -->
<g id="node1" class="node">
<title>[root] azurerm_network_interface.vm (expand)</title>
<polygon fill="none" stroke="black" points="1611.7,-324 1422.7,-324 1422.7,-288 1611.7,-288 1611.7,-324"/>
<text text-anchor="middle" x="1517.2" y="-302.3" font-family="Times New Roman,serif" font-size="14.00">azurerm_network_interface.vm</text>
</g>
<!-- [root] azurerm_public_ip.primary (expand) -->
<g id="node2" class="node">
<title>[root] azurerm_public_ip.primary (expand)</title>
<polygon fill="none" stroke="black" points="1568.7,-180 1401.7,-180 1401.7,-144 1568.7,-144 1568.7,-180"/>
<text text-anchor="middle" x="1485.2" y="-158.3" font-family="Times New Roman,serif" font-size="14.00">azurerm_public_ip.primary</text>
</g>
<!-- [root] azurerm_network_interface.vm (expand)&#45;&gt;[root] azurerm_public_ip.primary (expand) -->
<g id="edge1" class="edge">
<title>[root] azurerm_network_interface.vm (expand)&#45;&gt;[root] azurerm_public_ip.primary (expand)</title>
<path fill="none" stroke="black" d="M1531.67,-287.9C1545.2,-269.71 1561.73,-240.26 1550.2,-216 1544.63,-204.27 1535.06,-194.28 1524.94,-186.25"/>
<polygon fill="black" stroke="black" points="1526.91,-183.35 1516.78,-180.22 1522.75,-188.98 1526.91,-183.35"/>
</g>
<!-- [root] azurerm_subnet.primary (expand) -->
<g id="node16" class="node">
<title>[root] azurerm_subnet.primary (expand)</title>
<polygon fill="none" stroke="black" points="1541.2,-252 1389.2,-252 1389.2,-216 1541.2,-216 1541.2,-252"/>
<text text-anchor="middle" x="1465.2" y="-230.3" font-family="Times New Roman,serif" font-size="14.00">azurerm_subnet.primary</text>
</g>
<!-- [root] azurerm_network_interface.vm (expand)&#45;&gt;[root] azurerm_subnet.primary (expand) -->
<g id="edge2" class="edge">
<title>[root] azurerm_network_interface.vm (expand)&#45;&gt;[root] azurerm_subnet.primary (expand)</title>
<path fill="none" stroke="black" d="M1504.35,-287.7C1498.18,-279.39 1490.67,-269.28 1483.88,-260.14"/>
<polygon fill="black" stroke="black" points="1486.68,-258.04 1477.91,-252.1 1481.06,-262.22 1486.68,-258.04"/>
</g>
<!-- [root] azurerm_resource_group.primary (expand) -->
<g id="node5" class="node">
<title>[root] azurerm_resource_group.primary (expand)</title>
<polygon fill="none" stroke="black" points="1342.7,-108 1139.7,-108 1139.7,-72 1342.7,-72 1342.7,-108"/>
<text text-anchor="middle" x="1241.2" y="-86.3" font-family="Times New Roman,serif" font-size="14.00">azurerm_resource_group.primary</text>
</g>
<!-- [root] azurerm_public_ip.primary (expand)&#45;&gt;[root] azurerm_resource_group.primary (expand) -->
<g id="edge3" class="edge">
<title>[root] azurerm_public_ip.primary (expand)&#45;&gt;[root] azurerm_resource_group.primary (expand)</title>
<path fill="none" stroke="black" d="M1425.83,-143.97C1391.14,-134.01 1347.19,-121.41 1310.87,-110.99"/>
<polygon fill="black" stroke="black" points="1311.42,-107.5 1300.85,-108.11 1309.49,-114.23 1311.42,-107.5"/>
</g>
<!-- [root] azurerm_public_ip.secondary (expand) -->
<g id="node3" class="node">
<title>[root] azurerm_public_ip.secondary (expand)</title>
<polygon fill="none" stroke="black" points="481.2,-180 299.2,-180 299.2,-144 481.2,-144 481.2,-180"/>
<text text-anchor="middle" x="390.2" y="-158.3" font-family="Times New Roman,serif" font-size="14.00">azurerm_public_ip.secondary</text>
</g>
<!-- [root] azurerm_resource_group.secondary (expand) -->
<g id="node6" class="node">
<title>[root] azurerm_resource_group.secondary (expand)</title>
<polygon fill="none" stroke="black" points="1019.2,-108 801.2,-108 801.2,-72 1019.2,-72 1019.2,-108"/>
<text text-anchor="middle" x="910.2" y="-86.3" font-family="Times New Roman,serif" font-size="14.00">azurerm_resource_group.secondary</text>
</g>
<!-- [root] azurerm_public_ip.secondary (expand)&#45;&gt;[root] azurerm_resource_group.secondary (expand) -->
<g id="edge4" class="edge">
<title>[root] azurerm_public_ip.secondary (expand)&#45;&gt;[root] azurerm_resource_group.secondary (expand)</title>
<path fill="none" stroke="black" d="M481.37,-148.73C567.37,-137.15 696.78,-119.73 790.94,-107.05"/>
<polygon fill="black" stroke="black" points="791.65,-110.49 801.09,-105.69 790.71,-103.55 791.65,-110.49"/>
</g>
<!-- [root] azurerm_recovery_services_vault.vault (expand) -->
<g id="node4" class="node">
<title>[root] azurerm_recovery_services_vault.vault (expand)</title>
<polygon fill="none" stroke="black" points="980.7,-180 747.7,-180 747.7,-144 980.7,-144 980.7,-180"/>
<text text-anchor="middle" x="864.2" y="-158.3" font-family="Times New Roman,serif" font-size="14.00">azurerm_recovery_services_vault.vault</text>
</g>
<!-- [root] azurerm_recovery_services_vault.vault (expand)&#45;&gt;[root] azurerm_resource_group.secondary (expand) -->
<g id="edge5" class="edge">
<title>[root] azurerm_recovery_services_vault.vault (expand)&#45;&gt;[root] azurerm_resource_group.secondary (expand)</title>
<path fill="none" stroke="black" d="M875.57,-143.7C880.92,-135.56 887.41,-125.69 893.31,-116.7"/>
<polygon fill="black" stroke="black" points="896.4,-118.38 898.96,-108.1 890.55,-114.54 896.4,-118.38"/>
</g>
<!-- [root] provider[&quot;registry.terraform.io/hashicorp/azurerm&quot;] -->
<g id="node21" class="node">
<title>[root] provider[&quot;registry.terraform.io/hashicorp/azurerm&quot;]</title>
<polygon fill="none" stroke="black" points="910.2,-36 632.53,-18 910.2,0 1187.87,-18 910.2,-36"/>
<text text-anchor="middle" x="910.2" y="-14.3" font-family="Times New Roman,serif" font-size="14.00">provider[&quot;registry.terraform.io/hashicorp/azurerm&quot;]</text>
</g>
<!-- [root] azurerm_resource_group.primary (expand)&#45;&gt;[root] provider[&quot;registry.terraform.io/hashicorp/azurerm&quot;] -->
<g id="edge6" class="edge">
<title>[root] azurerm_resource_group.primary (expand)&#45;&gt;[root] provider[&quot;registry.terraform.io/hashicorp/azurerm&quot;]</title>
<path fill="none" stroke="black" d="M1160.65,-71.97C1106,-60.41 1034.39,-45.26 981.75,-34.13"/>
<polygon fill="black" stroke="black" points="982.33,-30.68 971.82,-32.03 980.88,-37.52 982.33,-30.68"/>
</g>
<!-- [root] var.prefix -->
<g id="node22" class="node">
<title>[root] var.prefix</title>
<polygon fill="none" stroke="black" points="1270.2,-36 1206.2,-36 1206.2,0 1276.2,0 1276.2,-30 1270.2,-36"/>
<polyline fill="none" stroke="black" points="1270.2,-36 1270.2,-30"/>
<polyline fill="none" stroke="black" points="1276.2,-30 1270.2,-30"/>
<text text-anchor="middle" x="1241.2" y="-14.3" font-family="Times New Roman,serif" font-size="14.00">var.prefix</text>
</g>
<!-- [root] azurerm_resource_group.primary (expand)&#45;&gt;[root] var.prefix -->
<g id="edge7" class="edge">
<title>[root] azurerm_resource_group.primary (expand)&#45;&gt;[root] var.prefix</title>
<path fill="none" stroke="black" d="M1241.2,-71.7C1241.2,-63.98 1241.2,-54.71 1241.2,-46.11"/>
<polygon fill="black" stroke="black" points="1244.7,-46.1 1241.2,-36.1 1237.7,-46.1 1244.7,-46.1"/>
</g>
<!-- [root] azurerm_resource_group.secondary (expand)&#45;&gt;[root] provider[&quot;registry.terraform.io/hashicorp/azurerm&quot;] -->
<g id="edge8" class="edge">
<title>[root] azurerm_resource_group.secondary (expand)&#45;&gt;[root] provider[&quot;registry.terraform.io/hashicorp/azurerm&quot;]</title>
<path fill="none" stroke="black" d="M910.2,-71.7C910.2,-63.98 910.2,-54.71 910.2,-46.11"/>
<polygon fill="black" stroke="black" points="913.7,-46.1 910.2,-36.1 906.7,-46.1 913.7,-46.1"/>
</g>
<!-- [root] azurerm_resource_group.secondary (expand)&#45;&gt;[root] var.prefix -->
<g id="edge9" class="edge">
<title>[root] azurerm_resource_group.secondary (expand)&#45;&gt;[root] var.prefix</title>
<path fill="none" stroke="black" d="M1019.3,-73.75C1070.73,-65.39 1132.89,-53.6 1196.11,-36.06"/>
<polygon fill="black" stroke="black" points="1197.18,-39.39 1205.85,-33.31 1195.28,-32.65 1197.18,-39.39"/>
</g>
<!-- [root] azurerm_site_recovery_fabric.primary (expand) -->
<g id="node7" class="node">
<title>[root] azurerm_site_recovery_fabric.primary (expand)</title>
<polygon fill="none" stroke="black" points="1099.2,-252 869.2,-252 869.2,-216 1099.2,-216 1099.2,-252"/>
<text text-anchor="middle" x="984.2" y="-230.3" font-family="Times New Roman,serif" font-size="14.00">azurerm_site_recovery_fabric.primary</text>
</g>
<!-- [root] azurerm_site_recovery_fabric.primary (expand)&#45;&gt;[root] azurerm_recovery_services_vault.vault (expand) -->
<g id="edge10" class="edge">
<title>[root] azurerm_site_recovery_fabric.primary (expand)&#45;&gt;[root] azurerm_recovery_services_vault.vault (expand)</title>
<path fill="none" stroke="black" d="M954.85,-215.88C939.16,-206.72 919.65,-195.34 902.75,-185.48"/>
<polygon fill="black" stroke="black" points="904.07,-182.21 893.67,-180.19 900.54,-188.25 904.07,-182.21"/>
</g>
<!-- [root] azurerm_site_recovery_fabric.primary (expand)&#45;&gt;[root] azurerm_resource_group.primary (expand) -->
<g id="edge11" class="edge">
<title>[root] azurerm_site_recovery_fabric.primary (expand)&#45;&gt;[root] azurerm_resource_group.primary (expand)</title>
<path fill="none" stroke="black" d="M1010.58,-215.98C1039.66,-197.47 1088.06,-167.39 1131.2,-144 1151.63,-132.92 1174.74,-121.62 1194.48,-112.3"/>
<polygon fill="black" stroke="black" points="1196.02,-115.45 1203.59,-108.04 1193.05,-109.11 1196.02,-115.45"/>
</g>
<!-- [root] azurerm_site_recovery_fabric.secondary (expand) -->
<g id="node8" class="node">
<title>[root] azurerm_site_recovery_fabric.secondary (expand)</title>
<polygon fill="none" stroke="black" points="850.7,-252 605.7,-252 605.7,-216 850.7,-216 850.7,-252"/>
<text text-anchor="middle" x="728.2" y="-230.3" font-family="Times New Roman,serif" font-size="14.00">azurerm_site_recovery_fabric.secondary</text>
</g>
<!-- [root] azurerm_site_recovery_fabric.secondary (expand)&#45;&gt;[root] azurerm_recovery_services_vault.vault (expand) -->
<g id="edge12" class="edge">
<title>[root] azurerm_site_recovery_fabric.secondary (expand)&#45;&gt;[root] azurerm_recovery_services_vault.vault (expand)</title>
<path fill="none" stroke="black" d="M761.47,-215.88C779.67,-206.51 802.39,-194.81 821.84,-184.8"/>
<polygon fill="black" stroke="black" points="823.52,-187.88 830.81,-180.19 820.31,-181.65 823.52,-187.88"/>
</g>
<!-- [root] azurerm_site_recovery_network_mapping.network&#45;mapping (expand) -->
<g id="node9" class="node">
<title>[root] azurerm_site_recovery_network_mapping.network&#45;mapping (expand)</title>
<polygon fill="none" stroke="black" points="1365.7,-324 1012.7,-324 1012.7,-288 1365.7,-288 1365.7,-324"/>
<text text-anchor="middle" x="1189.2" y="-302.3" font-family="Times New Roman,serif" font-size="14.00">azurerm_site_recovery_network_mapping.network&#45;mapping</text>
</g>
<!-- [root] azurerm_site_recovery_network_mapping.network&#45;mapping (expand)&#45;&gt;[root] azurerm_site_recovery_fabric.primary (expand) -->
<g id="edge13" class="edge">
<title>[root] azurerm_site_recovery_network_mapping.network&#45;mapping (expand)&#45;&gt;[root] azurerm_site_recovery_fabric.primary (expand)</title>
<path fill="none" stroke="black" d="M1139.32,-287.97C1110.55,-278.14 1074.19,-265.73 1043.91,-255.39"/>
<polygon fill="black" stroke="black" points="1044.91,-252.03 1034.31,-252.11 1042.65,-258.65 1044.91,-252.03"/>
</g>
<!-- [root] azurerm_site_recovery_network_mapping.network&#45;mapping (expand)&#45;&gt;[root] azurerm_site_recovery_fabric.secondary (expand) -->
<g id="edge14" class="edge">
<title>[root] azurerm_site_recovery_network_mapping.network&#45;mapping (expand)&#45;&gt;[root] azurerm_site_recovery_fabric.secondary (expand)</title>
<path fill="none" stroke="black" d="M1077.02,-287.97C1008.56,-277.57 920.99,-264.27 850.73,-253.6"/>
<polygon fill="black" stroke="black" points="850.9,-250.09 840.49,-252.05 849.85,-257.01 850.9,-250.09"/>
</g>
<!-- [root] azurerm_virtual_network.primary (expand) -->
<g id="node19" class="node">
<title>[root] azurerm_virtual_network.primary (expand)</title>
<polygon fill="none" stroke="black" points="1341.7,-180 1140.7,-180 1140.7,-144 1341.7,-144 1341.7,-180"/>
<text text-anchor="middle" x="1241.2" y="-158.3" font-family="Times New Roman,serif" font-size="14.00">azurerm_virtual_network.primary</text>
</g>
<!-- [root] azurerm_site_recovery_network_mapping.network&#45;mapping (expand)&#45;&gt;[root] azurerm_virtual_network.primary (expand) -->
<g id="edge15" class="edge">
<title>[root] azurerm_site_recovery_network_mapping.network&#45;mapping (expand)&#45;&gt;[root] azurerm_virtual_network.primary (expand)</title>
<path fill="none" stroke="black" d="M1170.69,-287.85C1153.34,-269.61 1132.04,-240.12 1146.2,-216 1153.97,-202.77 1166.37,-192.61 1179.68,-184.89"/>
<polygon fill="black" stroke="black" points="1181.35,-187.96 1188.52,-180.16 1178.05,-181.79 1181.35,-187.96"/>
</g>
<!-- [root] azurerm_virtual_network.secondary (expand) -->
<g id="node20" class="node">
<title>[root] azurerm_virtual_network.secondary (expand)</title>
<polygon fill="none" stroke="black" points="1371.2,-252 1155.2,-252 1155.2,-216 1371.2,-216 1371.2,-252"/>
<text text-anchor="middle" x="1263.2" y="-230.3" font-family="Times New Roman,serif" font-size="14.00">azurerm_virtual_network.secondary</text>
</g>
<!-- [root] azurerm_site_recovery_network_mapping.network&#45;mapping (expand)&#45;&gt;[root] azurerm_virtual_network.secondary (expand) -->
<g id="edge16" class="edge">
<title>[root] azurerm_site_recovery_network_mapping.network&#45;mapping (expand)&#45;&gt;[root] azurerm_virtual_network.secondary (expand)</title>
<path fill="none" stroke="black" d="M1207.49,-287.7C1216.63,-279.05 1227.84,-268.45 1237.8,-259.03"/>
<polygon fill="black" stroke="black" points="1240.26,-261.52 1245.12,-252.1 1235.45,-256.43 1240.26,-261.52"/>
</g>
<!-- [root] azurerm_site_recovery_protection_container.primary (expand) -->
<g id="node10" class="node">
<title>[root] azurerm_site_recovery_protection_container.primary (expand)</title>
<polygon fill="none" stroke="black" points="994.7,-324 681.7,-324 681.7,-288 994.7,-288 994.7,-324"/>
<text text-anchor="middle" x="838.2" y="-302.3" font-family="Times New Roman,serif" font-size="14.00">azurerm_site_recovery_protection_container.primary</text>
</g>
<!-- [root] azurerm_site_recovery_protection_container.primary (expand)&#45;&gt;[root] azurerm_site_recovery_fabric.primary (expand) -->
<g id="edge17" class="edge">
<title>[root] azurerm_site_recovery_protection_container.primary (expand)&#45;&gt;[root] azurerm_site_recovery_fabric.primary (expand)</title>
<path fill="none" stroke="black" d="M873.92,-287.88C893.7,-278.39 918.47,-266.51 939.53,-256.42"/>
<polygon fill="black" stroke="black" points="941.1,-259.55 948.6,-252.07 938.07,-253.24 941.1,-259.55"/>
</g>
<!-- [root] azurerm_site_recovery_protection_container.secondary (expand) -->
<g id="node11" class="node">
<title>[root] azurerm_site_recovery_protection_container.secondary (expand)</title>
<polygon fill="none" stroke="black" points="663.2,-324 335.2,-324 335.2,-288 663.2,-288 663.2,-324"/>
<text text-anchor="middle" x="499.2" y="-302.3" font-family="Times New Roman,serif" font-size="14.00">azurerm_site_recovery_protection_container.secondary</text>
</g>
<!-- [root] azurerm_site_recovery_protection_container.secondary (expand)&#45;&gt;[root] azurerm_site_recovery_fabric.secondary (expand) -->
<g id="edge18" class="edge">
<title>[root] azurerm_site_recovery_protection_container.secondary (expand)&#45;&gt;[root] azurerm_site_recovery_fabric.secondary (expand)</title>
<path fill="none" stroke="black" d="M554.93,-287.97C587.34,-278.06 628.38,-265.51 662.38,-255.12"/>
<polygon fill="black" stroke="black" points="663.69,-258.38 672.23,-252.11 661.64,-251.69 663.69,-258.38"/>
</g>
<!-- [root] azurerm_site_recovery_protection_container_mapping.container&#45;mapping (expand) -->
<g id="node12" class="node">
<title>[root] azurerm_site_recovery_protection_container_mapping.container&#45;mapping (expand)</title>
<polygon fill="none" stroke="black" points="882.7,-396 453.7,-396 453.7,-360 882.7,-360 882.7,-396"/>
<text text-anchor="middle" x="668.2" y="-374.3" font-family="Times New Roman,serif" font-size="14.00">azurerm_site_recovery_protection_container_mapping.container&#45;mapping</text>
</g>
<!-- [root] azurerm_site_recovery_protection_container_mapping.container&#45;mapping (expand)&#45;&gt;[root] azurerm_site_recovery_protection_container.primary (expand) -->
<g id="edge19" class="edge">
<title>[root] azurerm_site_recovery_protection_container_mapping.container&#45;mapping (expand)&#45;&gt;[root] azurerm_site_recovery_protection_container.primary (expand)</title>
<path fill="none" stroke="black" d="M709.79,-359.88C733.24,-350.22 762.71,-338.09 787.5,-327.88"/>
<polygon fill="black" stroke="black" points="788.84,-331.11 796.75,-324.07 786.17,-324.64 788.84,-331.11"/>
</g>
<!-- [root] azurerm_site_recovery_protection_container_mapping.container&#45;mapping (expand)&#45;&gt;[root] azurerm_site_recovery_protection_container.secondary (expand) -->
<g id="edge20" class="edge">
<title>[root] azurerm_site_recovery_protection_container_mapping.container&#45;mapping (expand)&#45;&gt;[root] azurerm_site_recovery_protection_container.secondary (expand)</title>
<path fill="none" stroke="black" d="M626.86,-359.88C603.65,-350.26 574.51,-338.19 549.93,-328.01"/>
<polygon fill="black" stroke="black" points="550.99,-324.66 540.41,-324.07 548.31,-331.13 550.99,-324.66"/>
</g>
<!-- [root] azurerm_site_recovery_replication_policy.policy (expand) -->
<g id="node14" class="node">
<title>[root] azurerm_site_recovery_replication_policy.policy (expand)</title>
<polygon fill="none" stroke="black" points="316.7,-324 27.7,-324 27.7,-288 316.7,-288 316.7,-324"/>
<text text-anchor="middle" x="172.2" y="-302.3" font-family="Times New Roman,serif" font-size="14.00">azurerm_site_recovery_replication_policy.policy</text>
</g>
<!-- [root] azurerm_site_recovery_protection_container_mapping.container&#45;mapping (expand)&#45;&gt;[root] azurerm_site_recovery_replication_policy.policy (expand) -->
<g id="edge21" class="edge">
<title>[root] azurerm_site_recovery_protection_container_mapping.container&#45;mapping (expand)&#45;&gt;[root] azurerm_site_recovery_replication_policy.policy (expand)</title>
<path fill="none" stroke="black" d="M547.5,-359.97C473.54,-349.53 378.86,-336.17 303.1,-325.47"/>
<polygon fill="black" stroke="black" points="303.41,-321.98 293.01,-324.05 302.43,-328.91 303.41,-321.98"/>
</g>
<!-- [root] azurerm_site_recovery_replicated_vm.vm&#45;replication (expand) -->
<g id="node13" class="node">
<title>[root] azurerm_site_recovery_replicated_vm.vm&#45;replication (expand)</title>
<polygon fill="none" stroke="black" points="1385.7,-468 1072.7,-468 1072.7,-432 1385.7,-432 1385.7,-468"/>
<text text-anchor="middle" x="1229.2" y="-446.3" font-family="Times New Roman,serif" font-size="14.00">azurerm_site_recovery_replicated_vm.vm&#45;replication</text>
</g>
<!-- [root] azurerm_site_recovery_replicated_vm.vm&#45;replication (expand)&#45;&gt;[root] azurerm_public_ip.secondary (expand) -->
<g id="edge22" class="edge">
<title>[root] azurerm_site_recovery_replicated_vm.vm&#45;replication (expand)&#45;&gt;[root] azurerm_public_ip.secondary (expand)</title>
<path fill="none" stroke="black" d="M1072.43,-444.67C760.27,-434.39 85.1,-403.15 18.2,-324 -63.45,-227.39 152.97,-187.07 289.13,-171.63"/>
<polygon fill="black" stroke="black" points="289.64,-175.09 299.19,-170.51 288.87,-168.14 289.64,-175.09"/>
</g>
<!-- [root] azurerm_site_recovery_replicated_vm.vm&#45;replication (expand)&#45;&gt;[root] azurerm_site_recovery_network_mapping.network&#45;mapping (expand) -->
<g id="edge23" class="edge">
<title>[root] azurerm_site_recovery_replicated_vm.vm&#45;replication (expand)&#45;&gt;[root] azurerm_site_recovery_network_mapping.network&#45;mapping (expand)</title>
<path fill="none" stroke="black" d="M1213.34,-431.79C1205.42,-422.05 1196.6,-409.2 1192.2,-396 1185.58,-376.11 1185.13,-352.31 1186.17,-334.33"/>
<polygon fill="black" stroke="black" points="1189.67,-334.48 1186.95,-324.24 1182.69,-333.94 1189.67,-334.48"/>
</g>
<!-- [root] azurerm_site_recovery_replicated_vm.vm&#45;replication (expand)&#45;&gt;[root] azurerm_site_recovery_protection_container_mapping.container&#45;mapping (expand) -->
<g id="edge24" class="edge">
<title>[root] azurerm_site_recovery_replicated_vm.vm&#45;replication (expand)&#45;&gt;[root] azurerm_site_recovery_protection_container_mapping.container&#45;mapping (expand)</title>
<path fill="none" stroke="black" d="M1092.68,-431.97C1008.61,-421.47 900.85,-408.03 814.94,-397.31"/>
<polygon fill="black" stroke="black" points="815.2,-393.82 804.85,-396.05 814.34,-400.76 815.2,-393.82"/>
</g>
<!-- [root] azurerm_storage_account.primary (expand) -->
<g id="node15" class="node">
<title>[root] azurerm_storage_account.primary (expand)</title>
<polygon fill="none" stroke="black" points="1788.7,-396 1581.7,-396 1581.7,-360 1788.7,-360 1788.7,-396"/>
<text text-anchor="middle" x="1685.2" y="-374.3" font-family="Times New Roman,serif" font-size="14.00">azurerm_storage_account.primary</text>
</g>
<!-- [root] azurerm_site_recovery_replicated_vm.vm&#45;replication (expand)&#45;&gt;[root] azurerm_storage_account.primary (expand) -->
<g id="edge25" class="edge">
<title>[root] azurerm_site_recovery_replicated_vm.vm&#45;replication (expand)&#45;&gt;[root] azurerm_storage_account.primary (expand)</title>
<path fill="none" stroke="black" d="M1340.17,-431.97C1410.27,-421.2 1500.63,-407.33 1571.29,-396.49"/>
<polygon fill="black" stroke="black" points="1572.22,-399.89 1581.57,-394.91 1571.15,-392.97 1572.22,-399.89"/>
</g>
<!-- [root] azurerm_subnet.secondary (expand) -->
<g id="node17" class="node">
<title>[root] azurerm_subnet.secondary (expand)</title>
<polygon fill="none" stroke="black" points="1368.7,-396 1201.7,-396 1201.7,-360 1368.7,-360 1368.7,-396"/>
<text text-anchor="middle" x="1285.2" y="-374.3" font-family="Times New Roman,serif" font-size="14.00">azurerm_subnet.secondary</text>
</g>
<!-- [root] azurerm_site_recovery_replicated_vm.vm&#45;replication (expand)&#45;&gt;[root] azurerm_subnet.secondary (expand) -->
<g id="edge26" class="edge">
<title>[root] azurerm_site_recovery_replicated_vm.vm&#45;replication (expand)&#45;&gt;[root] azurerm_subnet.secondary (expand)</title>
<path fill="none" stroke="black" d="M1243.05,-431.7C1249.69,-423.39 1257.78,-413.28 1265.09,-404.14"/>
<polygon fill="black" stroke="black" points="1268,-406.1 1271.52,-396.1 1262.54,-401.73 1268,-406.1"/>
</g>
<!-- [root] azurerm_virtual_machine.vm (expand) -->
<g id="node18" class="node">
<title>[root] azurerm_virtual_machine.vm (expand)</title>
<polygon fill="none" stroke="black" points="1563.2,-396 1387.2,-396 1387.2,-360 1563.2,-360 1563.2,-396"/>
<text text-anchor="middle" x="1475.2" y="-374.3" font-family="Times New Roman,serif" font-size="14.00">azurerm_virtual_machine.vm</text>
</g>
<!-- [root] azurerm_site_recovery_replicated_vm.vm&#45;replication (expand)&#45;&gt;[root] azurerm_virtual_machine.vm (expand) -->
<g id="edge27" class="edge">
<title>[root] azurerm_site_recovery_replicated_vm.vm&#45;replication (expand)&#45;&gt;[root] azurerm_virtual_machine.vm (expand)</title>
<path fill="none" stroke="black" d="M1289.07,-431.97C1324.19,-421.97 1368.73,-409.3 1405.43,-398.85"/>
<polygon fill="black" stroke="black" points="1406.41,-402.21 1415.07,-396.11 1404.49,-395.48 1406.41,-402.21"/>
</g>
<!-- [root] azurerm_site_recovery_replication_policy.policy (expand)&#45;&gt;[root] azurerm_recovery_services_vault.vault (expand) -->
<g id="edge28" class="edge">
<title>[root] azurerm_site_recovery_replication_policy.policy (expand)&#45;&gt;[root] azurerm_recovery_services_vault.vault (expand)</title>
<path fill="none" stroke="black" d="M251.85,-287.99C337.03,-269.87 476.07,-240.49 596.2,-216 652.62,-204.5 715.81,-191.99 766.65,-182.01"/>
<polygon fill="black" stroke="black" points="767.5,-185.41 776.64,-180.05 766.16,-178.54 767.5,-185.41"/>
</g>
<!-- [root] azurerm_storage_account.primary (expand)&#45;&gt;[root] azurerm_resource_group.primary (expand) -->
<g id="edge29" class="edge">
<title>[root] azurerm_storage_account.primary (expand)&#45;&gt;[root] azurerm_resource_group.primary (expand)</title>
<path fill="none" stroke="black" d="M1682.79,-359.82C1675.65,-315.92 1650.33,-199.2 1577.2,-144 1542.55,-117.85 1436.88,-104.25 1353.19,-97.42"/>
<polygon fill="black" stroke="black" points="1353.34,-93.92 1343.1,-96.62 1352.79,-100.9 1353.34,-93.92"/>
</g>
<!-- [root] azurerm_subnet.primary (expand)&#45;&gt;[root] azurerm_virtual_network.primary (expand) -->
<g id="edge30" class="edge">
<title>[root] azurerm_subnet.primary (expand)&#45;&gt;[root] azurerm_virtual_network.primary (expand)</title>
<path fill="none" stroke="black" d="M1410.69,-215.97C1378.99,-206.06 1338.85,-193.51 1305.59,-183.12"/>
<polygon fill="black" stroke="black" points="1306.55,-179.75 1295.96,-180.11 1304.46,-186.43 1306.55,-179.75"/>
</g>
<!-- [root] azurerm_subnet.secondary (expand)&#45;&gt;[root] azurerm_virtual_network.secondary (expand) -->
<g id="edge31" class="edge">
<title>[root] azurerm_subnet.secondary (expand)&#45;&gt;[root] azurerm_virtual_network.secondary (expand)</title>
<path fill="none" stroke="black" d="M1333.23,-359.85C1349.17,-351.6 1365.14,-339.95 1374.2,-324 1382.11,-310.09 1382.74,-301.53 1374.2,-288 1365.57,-274.31 1352.32,-264.09 1337.95,-256.47"/>
<polygon fill="black" stroke="black" points="1339.41,-253.29 1328.89,-252.05 1336.35,-259.58 1339.41,-253.29"/>
</g>
<!-- [root] azurerm_virtual_machine.vm (expand)&#45;&gt;[root] azurerm_network_interface.vm (expand) -->
<g id="edge32" class="edge">
<title>[root] azurerm_virtual_machine.vm (expand)&#45;&gt;[root] azurerm_network_interface.vm (expand)</title>
<path fill="none" stroke="black" d="M1485.58,-359.7C1490.47,-351.56 1496.39,-341.69 1501.78,-332.7"/>
<polygon fill="black" stroke="black" points="1504.8,-334.48 1506.94,-324.1 1498.79,-330.88 1504.8,-334.48"/>
</g>
<!-- [root] azurerm_virtual_network.primary (expand)&#45;&gt;[root] azurerm_resource_group.primary (expand) -->
<g id="edge33" class="edge">
<title>[root] azurerm_virtual_network.primary (expand)&#45;&gt;[root] azurerm_resource_group.primary (expand)</title>
<path fill="none" stroke="black" d="M1241.2,-143.7C1241.2,-135.98 1241.2,-126.71 1241.2,-118.11"/>
<polygon fill="black" stroke="black" points="1244.7,-118.1 1241.2,-108.1 1237.7,-118.1 1244.7,-118.1"/>
</g>
<!-- [root] azurerm_virtual_network.secondary (expand)&#45;&gt;[root] azurerm_resource_group.secondary (expand) -->
<g id="edge34" class="edge">
<title>[root] azurerm_virtual_network.secondary (expand)&#45;&gt;[root] azurerm_resource_group.secondary (expand)</title>
<path fill="none" stroke="black" d="M1220.69,-215.94C1194.82,-205.56 1161.1,-192.02 1131.2,-180 1073.28,-156.71 1006.84,-129.95 962.06,-111.9"/>
<polygon fill="black" stroke="black" points="963.15,-108.57 952.56,-108.07 960.53,-115.06 963.15,-108.57"/>
</g>
<!-- [root] provider[&quot;registry.terraform.io/hashicorp/azurerm&quot;] (close) -->
<g id="node23" class="node">
<title>[root] provider[&quot;registry.terraform.io/hashicorp/azurerm&quot;] (close)</title>
<ellipse fill="none" stroke="black" cx="1229.2" cy="-522" rx="246.96" ry="18"/>
<text text-anchor="middle" x="1229.2" y="-518.3" font-family="Times New Roman,serif" font-size="14.00">[root] provider[&quot;registry.terraform.io/hashicorp/azurerm&quot;] (close)</text>
</g>
<!-- [root] provider[&quot;registry.terraform.io/hashicorp/azurerm&quot;] (close)&#45;&gt;[root] azurerm_site_recovery_replicated_vm.vm&#45;replication (expand) -->
<g id="edge35" class="edge">
<title>[root] provider[&quot;registry.terraform.io/hashicorp/azurerm&quot;] (close)&#45;&gt;[root] azurerm_site_recovery_replicated_vm.vm&#45;replication (expand)</title>
<path fill="none" stroke="black" d="M1229.2,-503.7C1229.2,-495.98 1229.2,-486.71 1229.2,-478.11"/>
<polygon fill="black" stroke="black" points="1232.7,-478.1 1229.2,-468.1 1225.7,-478.1 1232.7,-478.1"/>
</g>
<!-- [root] root -->
<g id="node24" class="node">
<title>[root] root</title>
<ellipse fill="none" stroke="black" cx="1229.2" cy="-594" rx="49.29" ry="18"/>
<text text-anchor="middle" x="1229.2" y="-590.3" font-family="Times New Roman,serif" font-size="14.00">[root] root</text>
</g>
<!-- [root] root&#45;&gt;[root] provider[&quot;registry.terraform.io/hashicorp/azurerm&quot;] (close) -->
<g id="edge36" class="edge">
<title>[root] root&#45;&gt;[root] provider[&quot;registry.terraform.io/hashicorp/azurerm&quot;] (close)</title>
<path fill="none" stroke="black" d="M1229.2,-575.7C1229.2,-567.98 1229.2,-558.71 1229.2,-550.11"/>
<polygon fill="black" stroke="black" points="1232.7,-550.1 1229.2,-540.1 1225.7,-550.1 1232.7,-550.1"/>
</g>
</g>
</svg>
